<svg width="167" height="153" viewBox="0 0 167 153" fill="none" xmlns="http://www.w3.org/2000/svg">
<path d="M167 48.6158C167 56.0044 165.219 63.9277 161.698 72.1703C160.571 74.8091 158.003 76.3993 155.296 76.3993C154.385 76.3993 153.459 76.2188 152.568 75.8368C149.027 74.3369 147.384 70.2538 148.894 66.7261C151.671 60.2125 153.083 54.1225 153.083 48.6158C153.083 29.7973 138.742 13.8952 121.771 13.8952C106.219 13.8952 97.361 20.1796 91.3907 25.6586L64.7821 50.3033C62.3258 52.7615 61.7413 56.8933 63.6479 59.539C64.8934 61.2681 66.7235 62.3097 68.7901 62.4763C70.8428 62.6638 72.8329 61.9139 74.2732 60.4625L103.31 32.7207C106.066 30.075 110.484 30.1653 113.149 32.936C115.808 35.7067 115.71 40.1023 112.934 42.755L104.319 50.9838L137.351 79.913C145.088 86.6905 146.995 98.0719 141.783 106.384C138.575 111.495 133.336 114.932 127.414 115.8C127.01 115.856 126.614 115.904 126.21 115.939C126.182 119.515 125.229 123.057 123.274 126.182C120.066 131.293 114.826 134.73 108.905 135.598C107.618 135.779 106.337 135.855 105.057 135.792C104.681 138.445 103.777 141.028 102.308 143.368C99.1006 148.479 93.9305 153 84.9682 153C80.0487 153 75.2753 151.229 71.5317 147.945L49.933 128.612C27.1445 108.058 0 77.5104 0 48.6158C0 21.8115 20.2905 0.00694404 45.2292 0.00694404C50.9767 0.00694404 56.5921 1.17356 61.9083 3.47901C65.4362 5.00672 67.0575 9.09681 65.5266 12.6105C63.9958 16.1243 59.8973 17.7353 56.3764 16.2215C52.8138 14.6799 49.0632 13.9021 45.2222 13.9021C28.2508 13.9021 13.9097 29.8042 13.9097 48.6228C13.9097 67.1914 30.0043 91.9333 59.2433 118.3L80.7723 137.563C82.1431 138.765 84.0427 139.32 85.9215 139.049C87.8281 138.771 89.4633 137.695 90.514 136.008C92.1144 133.445 91.3212 129.64 88.6979 127.348L66.3825 106.176C63.6061 103.537 63.4878 99.1483 66.125 96.3637C68.7692 93.586 73.1669 93.468 75.9572 96.0929L101.856 120.495C103.102 121.578 105.029 122.147 106.88 121.856C108.787 121.578 110.422 120.495 111.473 118.814C113.073 116.252 112.28 112.446 109.656 110.148L84.8847 87.7669C82.0457 85.2045 81.8161 80.8227 84.3768 77.9826C86.9305 75.1424 91.3212 74.8924 94.181 77.434L120.219 100.558C121.611 101.78 123.517 102.35 125.389 102.058C127.296 101.78 128.931 100.697 129.982 99.0163C131.582 96.454 130.789 92.6486 128.166 90.3501L94.2228 60.6223L83.994 70.3926C79.7703 74.6147 73.807 76.809 67.6559 76.3229C61.5465 75.8299 55.9589 72.6703 52.3406 67.6497C46.4608 59.4973 47.6507 47.7409 55.11 40.2968L81.9344 15.4507C89.185 8.80516 101.167 0 121.757 0C146.696 0 166.986 21.8046 166.986 48.6089L167 48.6158Z" fill="#9CCCB9"/>
</svg>
