<svg width="151" height="152" viewBox="0 0 151 152" fill="none" xmlns="http://www.w3.org/2000/svg">
<path d="M138.417 36.111V12.6116C138.417 9.13235 135.604 6.31998 132.125 6.31998C128.646 6.31998 125.833 9.13235 125.833 12.6116V27.504L93.0978 5.40769C82.4082 -1.80256 68.5918 -1.80256 57.9022 5.40769L13.8668 35.1295C5.18433 40.9871 0 50.7266 0 61.2085V119.57C0 136.916 14.1122 151.028 31.4583 151.028H119.542C136.888 151.028 151 136.916 151 119.57V61.2085C151 51.2739 146.294 42.0378 138.417 36.111ZM138.417 119.57C138.417 129.976 129.948 138.445 119.542 138.445H31.4583C21.0519 138.445 12.5833 129.976 12.5833 119.57V61.2085C12.5833 54.9231 15.6914 49.0781 20.9009 45.5674L64.9426 15.8456C68.1513 13.6749 71.8257 12.5928 75.5 12.5928C79.1743 12.5928 82.8487 13.6749 86.0574 15.8456L130.105 45.5674C135.309 49.0781 138.417 54.9231 138.417 61.2085V119.57ZM89.4172 56.1689C83.7169 56.1689 78.822 57.9557 75.2609 61.0449C71.6935 57.9557 66.8049 56.1689 61.1047 56.1689C49.83 56.1689 40.6567 65.9839 40.6567 78.0387C40.6567 91.9118 54.9451 106.295 66.937 115.921C69.3467 117.859 72.3038 118.821 75.2609 118.821C78.218 118.821 81.1751 117.859 83.5911 115.915C95.5767 106.295 109.871 91.9118 109.871 78.0324C109.871 65.9776 100.698 56.1626 89.4235 56.1626L89.4172 56.1689ZM75.7139 106.106C75.456 106.313 75.0659 106.307 74.8079 106.106C61.501 95.4226 53.2401 84.6638 53.2401 78.0324C53.2401 72.9173 56.7697 68.7459 61.1047 68.7459C64.6909 68.7459 68.9692 69.9224 68.9692 75.522C68.9692 79.0013 71.7879 81.8137 75.2609 81.8137C78.7339 81.8137 81.5526 79.0013 81.5526 75.522C81.5526 69.9161 85.8309 68.7459 89.4172 68.7459C93.7521 68.7459 97.2817 72.911 97.2817 78.0324C97.2817 84.6638 89.0208 95.4226 75.7139 106.1V106.106Z" fill="#9CCCB9"/>
</svg>
