<svg width="151" height="151" viewBox="0 0 151 151" fill="none" xmlns="http://www.w3.org/2000/svg">
<path d="M44.0417 88.0833C44.0417 89.752 43.3788 91.3523 42.1989 92.5322C41.019 93.7121 39.4187 94.375 37.75 94.375H31.4583C29.7897 94.375 28.1894 93.7121 27.0095 92.5322C25.8295 91.3523 25.1667 89.752 25.1667 88.0833C25.1667 86.4147 25.8295 84.8144 27.0095 83.6345C28.1894 82.4545 29.7897 81.7917 31.4583 81.7917H37.75C39.4187 81.7917 41.019 82.4545 42.1989 83.6345C43.3788 84.8144 44.0417 86.4147 44.0417 88.0833ZM69.2083 81.7917H62.9167C61.248 81.7917 59.6477 82.4545 58.4678 83.6345C57.2879 84.8144 56.625 86.4147 56.625 88.0833C56.625 89.752 57.2879 91.3523 58.4678 92.5322C59.6477 93.7121 61.248 94.375 62.9167 94.375H69.2083C70.877 94.375 72.4773 93.7121 73.6572 92.5322C74.8371 91.3523 75.5 89.752 75.5 88.0833C75.5 86.4147 74.8371 84.8144 73.6572 83.6345C72.4773 82.4545 70.877 81.7917 69.2083 81.7917ZM37.75 106.958H31.4583C29.7897 106.958 28.1894 107.621 27.0095 108.801C25.8295 109.981 25.1667 111.581 25.1667 113.25C25.1667 114.919 25.8295 116.519 27.0095 117.699C28.1894 118.879 29.7897 119.542 31.4583 119.542H37.75C39.4187 119.542 41.019 118.879 42.1989 117.699C43.3788 116.519 44.0417 114.919 44.0417 113.25C44.0417 111.581 43.3788 109.981 42.1989 108.801C41.019 107.621 39.4187 106.958 37.75 106.958ZM69.2083 106.958H62.9167C61.248 106.958 59.6477 107.621 58.4678 108.801C57.2879 109.981 56.625 111.581 56.625 113.25C56.625 114.919 57.2879 116.519 58.4678 117.699C59.6477 118.879 61.248 119.542 62.9167 119.542H69.2083C70.877 119.542 72.4773 118.879 73.6572 117.699C74.8371 116.519 75.5 114.919 75.5 113.25C75.5 111.581 74.8371 109.981 73.6572 108.801C72.4773 107.621 70.877 106.958 69.2083 106.958ZM37.75 31.4583H31.4583C29.7897 31.4583 28.1894 32.1212 27.0095 33.3011C25.8295 34.481 25.1667 36.0813 25.1667 37.75C25.1667 39.4187 25.8295 41.019 27.0095 42.1989C28.1894 43.3788 29.7897 44.0417 31.4583 44.0417H37.75C39.4187 44.0417 41.019 43.3788 42.1989 42.1989C43.3788 41.019 44.0417 39.4187 44.0417 37.75C44.0417 36.0813 43.3788 34.481 42.1989 33.3011C41.019 32.1212 39.4187 31.4583 37.75 31.4583ZM69.2083 31.4583H62.9167C61.248 31.4583 59.6477 32.1212 58.4678 33.3011C57.2879 34.481 56.625 36.0813 56.625 37.75C56.625 39.4187 57.2879 41.019 58.4678 42.1989C59.6477 43.3788 61.248 44.0417 62.9167 44.0417H69.2083C70.877 44.0417 72.4773 43.3788 73.6572 42.1989C74.8371 41.019 75.5 39.4187 75.5 37.75C75.5 36.0813 74.8371 34.481 73.6572 33.3011C72.4773 32.1212 70.877 31.4583 69.2083 31.4583ZM37.75 56.625H31.4583C29.7897 56.625 28.1894 57.2879 27.0095 58.4678C25.8295 59.6477 25.1667 61.248 25.1667 62.9167C25.1667 64.5853 25.8295 66.1856 27.0095 67.3655C28.1894 68.5455 29.7897 69.2083 31.4583 69.2083H37.75C39.4187 69.2083 41.019 68.5455 42.1989 67.3655C43.3788 66.1856 44.0417 64.5853 44.0417 62.9167C44.0417 61.248 43.3788 59.6477 42.1989 58.4678C41.019 57.2879 39.4187 56.625 37.75 56.625ZM69.2083 56.625H62.9167C61.248 56.625 59.6477 57.2879 58.4678 58.4678C57.2879 59.6477 56.625 61.248 56.625 62.9167C56.625 64.5853 57.2879 66.1856 58.4678 67.3655C59.6477 68.5455 61.248 69.2083 62.9167 69.2083H69.2083C70.877 69.2083 72.4773 68.5455 73.6572 67.3655C74.8371 66.1856 75.5 64.5853 75.5 62.9167C75.5 61.248 74.8371 59.6477 73.6572 58.4678C72.4773 57.2879 70.877 56.625 69.2083 56.625ZM151 62.9167V119.542C150.99 127.882 147.672 135.878 141.775 141.775C135.878 147.672 127.882 150.99 119.542 151H31.4583C23.1181 150.99 15.1224 147.672 9.22497 141.775C3.32755 135.878 0.00999027 127.882 0 119.542L0 31.4583C0.00999027 23.1181 3.32755 15.1224 9.22497 9.22497C15.1224 3.32755 23.1181 0.00999027 31.4583 0L69.2083 0C77.5485 0.00999027 85.5443 3.32755 91.4417 9.22497C97.3391 15.1224 100.657 23.1181 100.667 31.4583H119.542C127.882 31.4683 135.878 34.7859 141.775 40.6833C147.672 46.5807 150.99 54.5765 151 62.9167ZM31.4583 138.417H88.0833V31.4583C88.0833 26.4524 86.0947 21.6514 82.555 18.1117C79.0152 14.5719 74.2143 12.5833 69.2083 12.5833H31.4583C26.4524 12.5833 21.6514 14.5719 18.1117 18.1117C14.5719 21.6514 12.5833 26.4524 12.5833 31.4583V119.542C12.5833 124.548 14.5719 129.349 18.1117 132.888C21.6514 136.428 26.4524 138.417 31.4583 138.417ZM138.417 62.9167C138.417 57.9107 136.428 53.1098 132.888 49.57C129.349 46.0303 124.548 44.0417 119.542 44.0417H100.667V138.417H119.542C124.548 138.417 129.349 136.428 132.888 132.888C136.428 129.349 138.417 124.548 138.417 119.542V62.9167ZM119.542 81.7917C118.297 81.7917 117.081 82.1607 116.046 82.852C115.012 83.5433 114.205 84.526 113.729 85.6756C113.253 86.8253 113.128 88.0903 113.371 89.3108C113.614 90.5312 114.213 91.6523 115.093 92.5322C115.973 93.4121 117.094 94.0113 118.314 94.2541C119.535 94.4969 120.8 94.3723 121.949 93.8961C123.099 93.4199 124.082 92.6135 124.773 91.5788C125.464 90.5441 125.833 89.3277 125.833 88.0833C125.833 86.4147 125.17 84.8144 123.991 83.6345C122.811 82.4545 121.21 81.7917 119.542 81.7917ZM119.542 106.958C118.297 106.958 117.081 107.327 116.046 108.019C115.012 108.71 114.205 109.693 113.729 110.842C113.253 111.992 113.128 113.257 113.371 114.477C113.614 115.698 114.213 116.819 115.093 117.699C115.973 118.579 117.094 119.178 118.314 119.421C119.535 119.664 120.8 119.539 121.949 119.063C123.099 118.587 124.082 117.78 124.773 116.745C125.464 115.711 125.833 114.494 125.833 113.25C125.833 111.581 125.17 109.981 123.991 108.801C122.811 107.621 121.21 106.958 119.542 106.958ZM119.542 56.625C118.297 56.625 117.081 56.994 116.046 57.6853C115.012 58.3767 114.205 59.3593 113.729 60.5089C113.253 61.6586 113.128 62.9236 113.371 64.1441C113.614 65.3646 114.213 66.4856 115.093 67.3655C115.973 68.2455 117.094 68.8447 118.314 69.0874C119.535 69.3302 120.8 69.2056 121.949 68.7294C123.099 68.2532 124.082 67.4468 124.773 66.4121C125.464 65.3775 125.833 64.161 125.833 62.9167C125.833 61.248 125.17 59.6477 123.991 58.4678C122.811 57.2879 121.21 56.625 119.542 56.625Z" fill="#9CCCB9"/>
</svg>
